<svg xmlns="http://www.w3.org/2000/svg" viewBox="0 0 100 100">
  <!-- Base circle -->
  <circle cx="50" cy="50" r="45" fill="#1e6b45" />
  
  <!-- Earth surface details -->
  <path d="M85,50c0,19.33-15.67,35-35,35c-19.33,0-35-15.67-35-35c0-19.33,15.67-35,35-35C69.33,15,85,30.67,85,50z" fill="#2d8659"/>
  <path d="M25,35c10-15,30-20,45-10c15,10,20,30,10,45c-10,15-30,20-45,10C20,70,15,50,25,35z" fill="#39a46d" fill-opacity="0.7"/>
  <path d="M40,75c-5-5,0-15,10-20c10-5,20-5,25,0c5,5,0,15-10,20C55,80,45,80,40,75z" fill="#53c788" fill-opacity="0.5"/>
  
  <!-- Chat bubbles -->
  <path d="M40,45c-2.76,0-5-2.24-5-5s2.24-5,5-5h25c2.76,0,5,2.24,5,5s-2.24,5-5,5H50l-5,5L40,45z" fill="white"/>
  <path d="M60,60c2.76,0,5,2.24,5,5s-2.24,5-5,5H35c-2.76,0-5-2.24-5-5s2.24-5,5-5h15l5-5L60,60z" fill="white"/>
</svg> 