<svg xmlns="http://www.w3.org/2000/svg" viewBox="0 0 120 120">
  <!-- Base light blue circle -->
  <circle cx="60" cy="60" r="55" fill="#59caf9" />
  
  <!-- Green continents -->
  <path d="M40,15 C30,25 22,33 30,42 C38,51 45,48 50,38 C55,28 50,15 40,15 Z" fill="#3de064" />
  <path d="M90,25 C80,30 78,38 82,48 C86,58 95,58 100,48 C105,38 100,20 90,25 Z" fill="#3de064" />
  <path d="M105,65 C95,65 85,70 90,80 C95,90 100,90 105,80 C110,70 115,65 105,65 Z" fill="#3de064" />
  <path d="M75,95 C60,95 55,90 60,85 C65,80 75,82 85,85 C95,88 90,95 75,95 Z" fill="#3de064" />
  <path d="M25,85 C15,85 15,75 25,68 C35,61 40,70 35,78 C30,86 35,85 25,85 Z" fill="#3de064" />
  <path d="M15,50 C5,55 10,65 20,60 C30,55 25,45 15,50 Z" fill="#3de064" />
  
  <!-- Eyes -->
  <circle cx="40" cy="45" r="6" fill="#ffffff" />
  <circle cx="40" cy="45" r="3" fill="#000000" />
  <circle cx="80" cy="45" r="6" fill="#ffffff" />
  <circle cx="80" cy="45" r="3" fill="#000000" />
  
  <!-- Smile -->
  <path d="M45,75 C52,85 68,85 75,75" fill="none" stroke="#ff5a64" stroke-width="3" stroke-linecap="round" />
</svg> 