<svg width="100" height="100" viewBox="0 0 100 100" fill="none" xmlns="http://www.w3.org/2000/svg">
  <!-- Circular background -->
  <circle cx="50" cy="50" r="45" fill="#1A2E1A"/>
  
  <!-- Recycling arrows -->
  <path d="M50 15C30.67 15 15 30.67 15 50C15 69.33 30.67 85 50 85C69.33 85 85 69.33 85 50C85 30.67 69.33 15 50 15ZM50 80C33.43 80 20 66.57 20 50C20 33.43 33.43 20 50 20C66.57 20 80 33.43 80 50C80 66.57 66.57 80 50 80Z" fill="#4ADE80"/>
  
  <!-- Arrow 1 -->
  <path d="M65 35L50 25L35 35" stroke="#4ADE80" stroke-width="4" stroke-linecap="round" stroke-linejoin="round"/>
  <path d="M50 25V50" stroke="#4ADE80" stroke-width="4" stroke-linecap="round" stroke-linejoin="round"/>
  
  <!-- Arrow 2 -->
  <path d="M35 65L50 75L65 65" stroke="#4ADE80" stroke-width="4" stroke-linecap="round" stroke-linejoin="round"/>
  <path d="M50 75V50" stroke="#4ADE80" stroke-width="4" stroke-linecap="round" stroke-linejoin="round"/>
  
  <!-- Circuit board elements -->
  <circle cx="35" cy="50" r="3" fill="#4ADE80"/>
  <circle cx="65" cy="50" r="3" fill="#4ADE80"/>
  <path d="M35 50H45" stroke="#4ADE80" stroke-width="2" stroke-linecap="round"/>
  <path d="M55 50H65" stroke="#4ADE80" stroke-width="2" stroke-linecap="round"/>
  <path d="M35 42V58" stroke="#4ADE80" stroke-width="2" stroke-linecap="round"/>
  <path d="M65 42V58" stroke="#4ADE80" stroke-width="2" stroke-linecap="round"/>
</svg> 